<svg id="Layer_1" data-name="Layer 1" xmlns="http://www.w3.org/2000/svg" viewBox="0 0 1000 1000"><path d="M357.09,706c0-12.89.29-64.23.29-87.26v-341c0-23-.49-41.07-.29-52.31.26-14.21,1.6-40.35-7-40.57s-8.35-1.43-28.09-.86l-15.75.93v-9.86l78.78.54h80.23c57.87,0,97.33,9.41,128.47,30.65s51.73,52.8,51.73,92.22q0,47.63-27.31,82.55t-78.58,52.62l-2-5.39q65.76,3.09,100.63,38.4t34.86,99.08q0,73-45.39,114T502.06,720.87H385l-75.77.32V707l13-.24m142.67-2.4h38.93c38.58,0,73.53-12.22,95.13-25.57,28.05-17.33,59.8-57.94,59.8-104,0-31.74-4.82-63.47-14.45-78-13.86-20.93-27.5-34.76-60.77-45.08-34.11-10.59-54.8-12.66-112.22-11.34l-96.73.44V429.29l123.22-.44c39.8-.59,93.52-37,107.17-56,16.7-23.2,24.75-32.94,28.89-67.44,4.51-37.56-26.65-72.64-43.31-86-17.66-14.1-69.47-30.73-121.65-30.41H377.32l1.17,432.73c0,28.16-.33,49.49,6.3,65C390.15,699.41,393.21,704.34,464.86,704.34Z" fill="#2b2b2b" stroke="#2b2b2b" stroke-miterlimit="10" stroke-width="7"/><path d="M626.33,432.28c-1,3.17-1.83,6.42-2.75,9.63,2.74.69,5.49,1.39,8.27,2.12s5.32,1.41,7.95,2.13c1-3.32,1.86-6.63,2.9-9.94.83-2.7,1.86-5.6,2.9-8.29,13.47-37.91,36.67-70.44,58.63-78.72V639.65a46.4,46.4,0,0,1-9.26-2.51,150.88,150.88,0,0,1-11.05,20.7,103.41,103.41,0,0,0,8.92,7.3h.2a137.58,137.58,0,0,0,17,11.6c29.21,17.19,62.56,25.89,100.27,25.89a209.21,209.21,0,0,0,50.34-6,260,260,0,0,0,46.64-16.74,64.47,64.47,0,0,0,9.52-5.35c10.66-7.37,18.05-14.38,24.81-19.78,9.26-7.4,24.06-25,24.06-25l1.25-69.4h-14.3q-7.77,58.73-44.54,92c-24.65,22.17-60.49,25.28-99,25.28-31.7,0-60.7-8.08-85.15-23.41V331.39c25.27-19.06,52-26.31,85.77-29,36.25-2.7,74.79,9.53,97.78,31.07q34.5,32,43.51,92h14.7l-1-66.71s-15.89-25.38-25-32.91c-13.93-11.51-12.56-12.89-28-20.53-14.54-7.19-30.24-12-46.4-15.75a222.12,222.12,0,0,0-46.41-5.39c-29,0-55.73,5.39-80.17,16A189,189,0,0,0,675,345.06a207.86,207.86,0,0,0-42.26,67.75c-.42,1.44-2.21,6.44-4.56,13.05Z" fill="#2b2b2b" stroke="#2b2b2b" stroke-miterlimit="10" stroke-width="7"/><path d="M673.27,462.86a73.89,73.89,0,0,0-11.95-8.21A85.3,85.3,0,0,0,649,449.21c-4.92-1.83-8.72-2.88-14.84-4.57-4.4-1.22-8-2.13-10.56-2.73.48-1.24.69-2.77,1.14-4.15.54-1.64.92-3,1.29-4.48,4.25.85,10.18,2.11,16.69,3.93,8.57,2.4,15.73,5,19.3,6.36a151.8,151.8,0,0,1,38.87,22.74l4.6,5.23c4.19,5.08,4.61,6.21,9.59,13.32,5.76,7.52,7.74,17.22,8.85,21.9V613.1s-8.08,27.14-30.87,52.82v.21h-.2c-8.71,10-19.89,14.92-33.57,22.79,0,0,8.91-7.87,23.62-29.42a4.29,4.29,0,0,0,.62-1,148.32,148.32,0,0,0,11-20.51,9.62,9.62,0,0,0,1-2.08c3.31-8.08,5.59-14.7,6.83-23.41a269.34,269.34,0,0,0,1.87-32.31c0-26.89,1,67.48-.21-34.6a218.7,218.7,0,0,0-.3-30.52,60.5,60.5,0,0,0-1.33-9c-1.83-8-4.9-13.52-7.92-18.88A71.75,71.75,0,0,0,683,471.08,65.07,65.07,0,0,0,673.27,462.86Z" fill="#2b2b2b" stroke="#2b2b2b" stroke-miterlimit="10" stroke-width="7"/><polygon points="896.01 819.38 896.01 823.56 891.12 823.56 891.12 915.75 896.01 915.75 896.01 920.32 905.79 920.32 905.79 819.38 896.01 819.38" fill="#2b2b2b" stroke="#2b2b2b" stroke-miterlimit="10" stroke-width="7"/><path d="M270.36,835.79l-18.93.41-33.66.41h73v-1Z" fill="#2b2b2b" stroke="#2b2b2b" stroke-miterlimit="10" stroke-width="7"/><rect x="33.08" y="836.61" width="858.04" height="18.65" fill="#2b2b2b" stroke="#2b2b2b" stroke-miterlimit="10" stroke-width="7"/><polygon points="270.36 835.78 270.36 836.61 251.43 836.61 251.43 836.2 270.36 835.78" fill="#2b2b2b" stroke="#2b2b2b" stroke-miterlimit="10" stroke-width="7"/><rect x="33.08" y="884.88" width="858.04" height="18.23" fill="#2b2b2b" stroke="#2b2b2b" stroke-miterlimit="10" stroke-width="7"/><polygon points="326.53 350.81 326.53 310.2 287.82 310.41 270.36 310.2 270.36 835.78 251.43 836.2 251.43 310.2 216.51 309.99 217.78 836.61 143.31 836.61 143.31 835.58 198.42 835.78 198.21 309.79 101.45 309.17 101.45 308.96 87.14 308.96 87.35 391.62 74.52 391.62 74.1 308.75 51.17 308.54 51.17 293.42 101.87 293.63 101.87 293.83 204.1 294.46 246.38 294.46 338.94 294.66 339.36 350.81 326.53 350.81" fill="#2b2b2b" stroke="#2b2b2b" stroke-miterlimit="10" stroke-width="7"/><polygon points="101.45 308.96 101.45 309.17 87.14 308.96 101.45 308.96" fill="#2b2b2b" stroke="#2b2b2b" stroke-miterlimit="10" stroke-width="7"/><polygon points="91.67 97.29 91.67 139.13 966.92 139.13 966.92 156.74 85.21 156.74 85.21 189.06 70.12 189.06 70.12 79.68 966.92 79.68 966.92 97.29 91.67 97.29" fill="#2b2b2b" stroke="#2b2b2b" stroke-miterlimit="10" stroke-width="7"/></svg>