<svg xmlns="http://www.w3.org/2000/svg" viewBox="0 0 280 54" role="img" aria-label="The Baker's Company">
  <title>The Baker's Company</title>
  <defs>
    <style>
      .m{fill:#795a3c}
      .t1{font-family:"Cinzel",Georgia,serif;font-weight:700;font-size:13px;letter-spacing:0.18em;fill:#2b2b2b}
      .t2{font-family:Georgia,serif;font-size:7px;letter-spacing:0.18em;fill:#795a3c}
    </style>
  </defs>
  <!-- Monogram mark (shifted to origin) -->
  <g transform="translate(-76, -206)">
<g id="Monogram"><path class="cls-1" d="M66.1,240.66c0-.63,0-3.1,0-4.21V220c0-1.12,0-2,0-2.53,0-.69.08-2-.33-2a10.26,10.26,0,0,0-1.36,0l-.76,0V215l3.8,0h3.87c2.8,0,4.7.45,6.21,1.47A5.33,5.33,0,0,1,80,221a6.26,6.26,0,0,1-1.32,4,7.86,7.86,0,0,1-3.79,2.54l-.09-.26a7,7,0,0,1,4.85,1.85,6.51,6.51,0,0,1,1.69,4.79,7,7,0,0,1-2.19,5.5,8.74,8.74,0,0,1-6.07,2H63.79v-.68l.63,0Zm5.21-.08h1.88a9,9,0,0,0,4.59-1.24,6.3,6.3,0,0,0,2.88-5,8,8,0,0,0-.69-3.76A4.75,4.75,0,0,0,77,228.38a14.29,14.29,0,0,0-5.41-.55l-4.67,0v-.55l6,0a8.51,8.51,0,0,0,5.17-2.7,5.58,5.58,0,0,0,1.39-3.26c.22-1.81-1.28-3.5-2.09-4.15a11.12,11.12,0,0,0-5.87-1.46H67.08l.06,20.89a8.71,8.71,0,0,0,.3,3.14C67.7,240.34,67.85,240.58,71.31,240.58Z" transform="translate(30.15 0.33)"/><path class="cls-1" d="M79.1,227.45c0,.15-.09.3-.13.46l.4.1.38.11c0-.16.09-.32.14-.48s.09-.27.14-.4c.65-1.83,1.77-3.4,2.83-3.8v14a2.32,2.32,0,0,1-.45-.13,7.28,7.28,0,0,1-.53,1,5.12,5.12,0,0,0,.43.36h0a6.59,6.59,0,0,0,.82.56A9.35,9.35,0,0,0,88,240.5a10.11,10.11,0,0,0,2.43-.29,13.4,13.4,0,0,0,2.25-.81,3.42,3.42,0,0,0,.46-.26c.52-.36.87-.7,1.2-1a10.84,10.84,0,0,0,1.16-1.2l.06-3.35h-.69a7,7,0,0,1-2.15,4.44c-1.19,1.07-2.92,1.22-4.78,1.22a7.66,7.66,0,0,1-4.11-1.13V222.58a7.4,7.4,0,0,1,4.14-1.4,6.48,6.48,0,0,1,4.72,1.5,7.32,7.32,0,0,1,2.1,4.44h.71l0-3.22a9.66,9.66,0,0,0-1.21-1.59,4.52,4.52,0,0,0-1.35-1,10,10,0,0,0-2.24-.76,10.71,10.71,0,0,0-2.24-.26,9.65,9.65,0,0,0-3.87.77,9.12,9.12,0,0,0-3.07,2.17,10,10,0,0,0-2,3.27c0,.07-.11.31-.22.63Z" transform="translate(30.15 0.33)"/><path class="cls-1" d="M81.37,228.92a3.76,3.76,0,0,0-.58-.4,5.46,5.46,0,0,0-.6-.26,6.73,6.73,0,0,0-.71-.22l-.51-.13c0-.06,0-.13,0-.2a1.87,1.87,0,0,0,.07-.22l.8.19c.41.12.76.24.93.31a7.34,7.34,0,0,1,1.88,1.1l.22.25c.2.25.22.3.46.64a2.69,2.69,0,0,1,.43,1.06v5.13a7.53,7.53,0,0,1-1.49,2.55h0a5.9,5.9,0,0,1-1.62,1.1,8.34,8.34,0,0,0,1.14-1.42l0,0a7.15,7.15,0,0,0,.53-1,.47.47,0,0,0,0-.1,4.44,4.44,0,0,0,.33-1.13,13,13,0,0,0,.09-1.56c0-1.29,0,3.26,0-1.67a11,11,0,0,0,0-1.47,2.91,2.91,0,0,0-.07-.43,3.15,3.15,0,0,0-.38-.92,3.5,3.5,0,0,0-.55-.77A4.22,4.22,0,0,0,81.37,228.92Z" transform="translate(30.15 0.33)"/><polygon class="cls-1" points="122.27 246.46 122.27 246.66 122.04 246.66 122.04 251.11 122.27 251.11 122.27 251.33 122.74 251.33 122.74 246.46 122.27 246.46"/><path class="cls-1" d="M61.92,246.92l-.92,0-1.62,0H62.9v-.05Z" transform="translate(30.15 0.33)"/><rect class="cls-1" x="80.62" y="247.29" width="41.42" height="0.9"/><polygon class="cls-1" points="92.07 247.25 92.07 247.29 91.16 247.29 91.16 247.27 92.07 247.25"/><rect class="cls-1" x="80.62" y="249.62" width="41.42" height="0.88"/><polygon class="cls-1" points="94.78 223.84 94.78 221.88 92.91 221.89 92.07 221.88 92.07 247.25 91.16 247.27 91.16 221.88 89.47 221.87 89.53 247.29 85.94 247.29 85.94 247.24 88.6 247.25 88.59 221.86 83.92 221.83 83.92 221.82 83.23 221.82 83.24 225.81 82.62 225.81 82.6 221.81 81.49 221.8 81.49 221.07 83.94 221.08 83.94 221.09 88.87 221.12 90.91 221.12 95.38 221.13 95.4 223.84 94.78 223.84"/><polygon class="cls-1" points="83.92 221.82 83.92 221.83 83.23 221.82 83.92 221.82"/><polygon class="cls-1" points="83.45 211.61 83.45 213.63 125.69 213.63 125.69 214.48 83.13 214.48 83.13 216.04 82.41 216.04 82.41 210.76 125.69 210.76 125.69 211.61 83.45 211.61"/></g>
  </g>
  <!-- Wordmark text -->
  <text class="t1" x="90" y="24">THE BAKER'S COMPANY</text>
  <text class="t2" x="91" y="38">Timber . Brick . Concrete</text>
</svg>
